{
 "cells": [
  {
   "cell_type": "code",
   "execution_count": 1,
   "id": "cd73edc9",
   "metadata": {},
   "outputs": [
    {
     "name": "stderr",
     "output_type": "stream",
     "text": [
      "ffmpeg version 7.1.1 Copyright (c) 2000-2025 the FFmpeg developers\n",
      "  built with Apple clang version 16.0.0 (clang-1600.0.26.6)\n",
      "  configuration: --prefix=/opt/homebrew/Cellar/ffmpeg/7.1.1_1 --enable-shared --enable-pthreads --enable-version3 --cc=clang --host-cflags= --host-ldflags='-Wl,-ld_classic' --enable-ffplay --enable-gnutls --enable-gpl --enable-libaom --enable-libaribb24 --enable-libbluray --enable-libdav1d --enable-libharfbuzz --enable-libjxl --enable-libmp3lame --enable-libopus --enable-librav1e --enable-librist --enable-librubberband --enable-libsnappy --enable-libsrt --enable-libssh --enable-libsvtav1 --enable-libtesseract --enable-libtheora --enable-libvidstab --enable-libvmaf --enable-libvorbis --enable-libvpx --enable-libwebp --enable-libx264 --enable-libx265 --enable-libxml2 --enable-libxvid --enable-lzma --enable-libfontconfig --enable-libfreetype --enable-frei0r --enable-libass --enable-libopencore-amrnb --enable-libopencore-amrwb --enable-libopenjpeg --enable-libspeex --enable-libsoxr --enable-libzmq --enable-libzimg --disable-libjack --disable-indev=jack --enable-videotoolbox --enable-audiotoolbox --enable-neon\n",
      "  libavutil      59. 39.100 / 59. 39.100\n",
      "  libavcodec     61. 19.101 / 61. 19.101\n",
      "  libavformat    61.  7.100 / 61.  7.100\n",
      "  libavdevice    61.  3.100 / 61.  3.100\n",
      "  libavfilter    10.  4.100 / 10.  4.100\n",
      "  libswscale      8.  3.100 /  8.  3.100\n",
      "  libswresample   5.  3.100 /  5.  3.100\n",
      "  libpostproc    58.  3.100 / 58.  3.100\n",
      "Input #0, mov,mp4,m4a,3gp,3g2,mj2, from '../demo/demo-3s-small.mp4':\n",
      "  Metadata:\n",
      "    major_brand     : isom\n",
      "    minor_version   : 512\n",
      "    compatible_brands: isomiso2avc1mp41\n",
      "    encoder         : Lavf61.7.100\n",
      "  Duration: 00:00:03.08, start: 0.000000, bitrate: 775 kb/s\n",
      "  Stream #0:0[0x1](und): Audio: aac (LC) (mp4a / 0x6134706D), 48000 Hz, 5.1, fltp, 348 kb/s (default)\n",
      "      Metadata:\n",
      "        handler_name    : SoundHandler\n",
      "        vendor_id       : [0][0][0][0]\n",
      "  Stream #0:1[0x2](und): Video: h264 (High) (avc1 / 0x31637661), yuv420p(progressive), 320x240 [SAR 1:1 DAR 4:3], 418 kb/s, 15.33 fps, 15 tbr, 1000k tbn (default)\n",
      "      Metadata:\n",
      "        handler_name    : VideoHandler\n",
      "        vendor_id       : [0][0][0][0]\n",
      "        encoder         : Lavc61.19.100 libx264\n",
      "Stream mapping:\n",
      "  Stream #0:1 -> #0:0 (h264 (native) -> png (native))\n",
      "Press [q] to stop, [?] for help\n",
      "[swscaler @ 0x120330000] [swscaler @ 0x118960000] No accelerated colorspace conversion found from yuv420p to rgb24.\n",
      "[swscaler @ 0x120330000] [swscaler @ 0x118970000] No accelerated colorspace conversion found from yuv420p to rgb24.\n",
      "[swscaler @ 0x120330000] [swscaler @ 0x118980000] No accelerated colorspace conversion found from yuv420p to rgb24.\n",
      "[swscaler @ 0x120330000] [swscaler @ 0x118990000] No accelerated colorspace conversion found from yuv420p to rgb24.\n",
      "[swscaler @ 0x120330000] [swscaler @ 0x120340000] No accelerated colorspace conversion found from yuv420p to rgb24.\n",
      "[swscaler @ 0x120330000] [swscaler @ 0x120350000] No accelerated colorspace conversion found from yuv420p to rgb24.\n",
      "[swscaler @ 0x120330000] [swscaler @ 0x120360000] No accelerated colorspace conversion found from yuv420p to rgb24.\n",
      "[swscaler @ 0x120330000] [swscaler @ 0x120370000] No accelerated colorspace conversion found from yuv420p to rgb24.\n",
      "[swscaler @ 0x120330000] [swscaler @ 0x120380000] No accelerated colorspace conversion found from yuv420p to rgb24.\n",
      "Output #0, image2, to 'frames/output_%04d.png':\n",
      "  Metadata:\n",
      "    major_brand     : isom\n",
      "    minor_version   : 512\n",
      "    compatible_brands: isomiso2avc1mp41\n",
      "    encoder         : Lavf61.7.100\n",
      "  Stream #0:0(und): Video: png, rgb24(pc, gbr/unknown/unknown, progressive), 320x240 [SAR 1:1 DAR 4:3], q=2-31, 200 kb/s, 15 fps, 15 tbn (default)\n",
      "      Metadata:\n",
      "        handler_name    : VideoHandler\n",
      "        vendor_id       : [0][0][0][0]\n",
      "        encoder         : Lavc61.19.101 png\n",
      "[out#0/image2 @ 0x1376447a0] video:6445KiB audio:0KiB subtitle:0KiB other streams:0KiB global headers:0KiB muxing overhead: unknown\n",
      "frame=   47 fps=0.0 q=-0.0 Lsize=N/A time=00:00:03.13 bitrate=N/A speed=54.5x    \n"
     ]
    },
    {
     "data": {
      "text/plain": [
       "0"
      ]
     },
     "execution_count": 1,
     "metadata": {},
     "output_type": "execute_result"
    }
   ],
   "source": [
    "video_path = \"../demo/demo-3s-small.mp4\"\n",
    "\n",
    "# Use ffmpeg to decompose\n",
    "import os\n",
    "# Create directories if they don't exist\n",
    "if not os.path.exists(\"frames\"):\n",
    "    os.makedirs(\"frames\")\n",
    "if not os.path.exists(\"decomposed_frames\"):\n",
    "    os.makedirs(\"decomposed_frames\")\n",
    "\n",
    "os.system(f\"ffmpeg -i {video_path} frames/output_%04d.png\")"
   ]
  },
  {
   "cell_type": "code",
   "execution_count": null,
   "id": "7ee406c3",
   "metadata": {},
   "outputs": [],
   "source": []
  },
  {
   "cell_type": "code",
   "execution_count": 2,
   "id": "b42a1aa8",
   "metadata": {},
   "outputs": [
    {
     "name": "stdout",
     "output_type": "stream",
     "text": [
      "Saved R channel to decomposed_frames/output_0001_R.txt\n",
      "Saved G channel to decomposed_frames/output_0001_G.txt\n",
      "Saved B channel to decomposed_frames/output_0001_B.txt\n",
      "Saved R channel to decomposed_frames/output_0002_R.txt\n",
      "Saved G channel to decomposed_frames/output_0002_G.txt\n",
      "Saved B channel to decomposed_frames/output_0002_B.txt\n",
      "Saved R channel to decomposed_frames/output_0003_R.txt\n",
      "Saved G channel to decomposed_frames/output_0003_G.txt\n",
      "Saved B channel to decomposed_frames/output_0003_B.txt\n",
      "Saved R channel to decomposed_frames/output_0004_R.txt\n",
      "Saved G channel to decomposed_frames/output_0004_G.txt\n",
      "Saved B channel to decomposed_frames/output_0004_B.txt\n",
      "Saved R channel to decomposed_frames/output_0005_R.txt\n",
      "Saved G channel to decomposed_frames/output_0005_G.txt\n",
      "Saved B channel to decomposed_frames/output_0005_B.txt\n",
      "Saved R channel to decomposed_frames/output_0006_R.txt\n",
      "Saved G channel to decomposed_frames/output_0006_G.txt\n",
      "Saved B channel to decomposed_frames/output_0006_B.txt\n",
      "Saved R channel to decomposed_frames/output_0007_R.txt\n",
      "Saved G channel to decomposed_frames/output_0007_G.txt\n",
      "Saved B channel to decomposed_frames/output_0007_B.txt\n",
      "Saved R channel to decomposed_frames/output_0008_R.txt\n",
      "Saved G channel to decomposed_frames/output_0008_G.txt\n",
      "Saved B channel to decomposed_frames/output_0008_B.txt\n",
      "Saved R channel to decomposed_frames/output_0009_R.txt\n",
      "Saved G channel to decomposed_frames/output_0009_G.txt\n",
      "Saved B channel to decomposed_frames/output_0009_B.txt\n",
      "Saved R channel to decomposed_frames/output_0010_R.txt\n",
      "Saved G channel to decomposed_frames/output_0010_G.txt\n",
      "Saved B channel to decomposed_frames/output_0010_B.txt\n",
      "Saved R channel to decomposed_frames/output_0011_R.txt\n",
      "Saved G channel to decomposed_frames/output_0011_G.txt\n",
      "Saved B channel to decomposed_frames/output_0011_B.txt\n",
      "Saved R channel to decomposed_frames/output_0012_R.txt\n",
      "Saved G channel to decomposed_frames/output_0012_G.txt\n",
      "Saved B channel to decomposed_frames/output_0012_B.txt\n",
      "Saved R channel to decomposed_frames/output_0013_R.txt\n",
      "Saved G channel to decomposed_frames/output_0013_G.txt\n",
      "Saved B channel to decomposed_frames/output_0013_B.txt\n",
      "Saved R channel to decomposed_frames/output_0014_R.txt\n",
      "Saved G channel to decomposed_frames/output_0014_G.txt\n",
      "Saved B channel to decomposed_frames/output_0014_B.txt\n",
      "Saved R channel to decomposed_frames/output_0015_R.txt\n",
      "Saved G channel to decomposed_frames/output_0015_G.txt\n",
      "Saved B channel to decomposed_frames/output_0015_B.txt\n",
      "Saved R channel to decomposed_frames/output_0016_R.txt\n",
      "Saved G channel to decomposed_frames/output_0016_G.txt\n",
      "Saved B channel to decomposed_frames/output_0016_B.txt\n",
      "Saved R channel to decomposed_frames/output_0017_R.txt\n",
      "Saved G channel to decomposed_frames/output_0017_G.txt\n",
      "Saved B channel to decomposed_frames/output_0017_B.txt\n",
      "Saved R channel to decomposed_frames/output_0018_R.txt\n",
      "Saved G channel to decomposed_frames/output_0018_G.txt\n",
      "Saved B channel to decomposed_frames/output_0018_B.txt\n",
      "Saved R channel to decomposed_frames/output_0019_R.txt\n",
      "Saved G channel to decomposed_frames/output_0019_G.txt\n",
      "Saved B channel to decomposed_frames/output_0019_B.txt\n",
      "Saved R channel to decomposed_frames/output_0020_R.txt\n",
      "Saved G channel to decomposed_frames/output_0020_G.txt\n",
      "Saved B channel to decomposed_frames/output_0020_B.txt\n",
      "Saved R channel to decomposed_frames/output_0021_R.txt\n",
      "Saved G channel to decomposed_frames/output_0021_G.txt\n",
      "Saved B channel to decomposed_frames/output_0021_B.txt\n",
      "Saved R channel to decomposed_frames/output_0022_R.txt\n",
      "Saved G channel to decomposed_frames/output_0022_G.txt\n",
      "Saved B channel to decomposed_frames/output_0022_B.txt\n",
      "Saved R channel to decomposed_frames/output_0023_R.txt\n",
      "Saved G channel to decomposed_frames/output_0023_G.txt\n",
      "Saved B channel to decomposed_frames/output_0023_B.txt\n",
      "Saved R channel to decomposed_frames/output_0024_R.txt\n",
      "Saved G channel to decomposed_frames/output_0024_G.txt\n",
      "Saved B channel to decomposed_frames/output_0024_B.txt\n",
      "Saved R channel to decomposed_frames/output_0025_R.txt\n",
      "Saved G channel to decomposed_frames/output_0025_G.txt\n",
      "Saved B channel to decomposed_frames/output_0025_B.txt\n",
      "Saved R channel to decomposed_frames/output_0026_R.txt\n",
      "Saved G channel to decomposed_frames/output_0026_G.txt\n",
      "Saved B channel to decomposed_frames/output_0026_B.txt\n",
      "Saved R channel to decomposed_frames/output_0027_R.txt\n",
      "Saved G channel to decomposed_frames/output_0027_G.txt\n",
      "Saved B channel to decomposed_frames/output_0027_B.txt\n",
      "Saved R channel to decomposed_frames/output_0028_R.txt\n",
      "Saved G channel to decomposed_frames/output_0028_G.txt\n",
      "Saved B channel to decomposed_frames/output_0028_B.txt\n",
      "Saved R channel to decomposed_frames/output_0029_R.txt\n",
      "Saved G channel to decomposed_frames/output_0029_G.txt\n",
      "Saved B channel to decomposed_frames/output_0029_B.txt\n",
      "Saved R channel to decomposed_frames/output_0030_R.txt\n",
      "Saved G channel to decomposed_frames/output_0030_G.txt\n",
      "Saved B channel to decomposed_frames/output_0030_B.txt\n",
      "Saved R channel to decomposed_frames/output_0031_R.txt\n",
      "Saved G channel to decomposed_frames/output_0031_G.txt\n",
      "Saved B channel to decomposed_frames/output_0031_B.txt\n",
      "Saved R channel to decomposed_frames/output_0032_R.txt\n",
      "Saved G channel to decomposed_frames/output_0032_G.txt\n",
      "Saved B channel to decomposed_frames/output_0032_B.txt\n",
      "Saved R channel to decomposed_frames/output_0033_R.txt\n",
      "Saved G channel to decomposed_frames/output_0033_G.txt\n",
      "Saved B channel to decomposed_frames/output_0033_B.txt\n",
      "Saved R channel to decomposed_frames/output_0034_R.txt\n",
      "Saved G channel to decomposed_frames/output_0034_G.txt\n",
      "Saved B channel to decomposed_frames/output_0034_B.txt\n",
      "Saved R channel to decomposed_frames/output_0035_R.txt\n",
      "Saved G channel to decomposed_frames/output_0035_G.txt\n",
      "Saved B channel to decomposed_frames/output_0035_B.txt\n",
      "Saved R channel to decomposed_frames/output_0036_R.txt\n",
      "Saved G channel to decomposed_frames/output_0036_G.txt\n",
      "Saved B channel to decomposed_frames/output_0036_B.txt\n",
      "Saved R channel to decomposed_frames/output_0037_R.txt\n",
      "Saved G channel to decomposed_frames/output_0037_G.txt\n",
      "Saved B channel to decomposed_frames/output_0037_B.txt\n",
      "Saved R channel to decomposed_frames/output_0038_R.txt\n",
      "Saved G channel to decomposed_frames/output_0038_G.txt\n",
      "Saved B channel to decomposed_frames/output_0038_B.txt\n",
      "Saved R channel to decomposed_frames/output_0039_R.txt\n",
      "Saved G channel to decomposed_frames/output_0039_G.txt\n",
      "Saved B channel to decomposed_frames/output_0039_B.txt\n",
      "Saved R channel to decomposed_frames/output_0040_R.txt\n",
      "Saved G channel to decomposed_frames/output_0040_G.txt\n",
      "Saved B channel to decomposed_frames/output_0040_B.txt\n",
      "Saved R channel to decomposed_frames/output_0041_R.txt\n",
      "Saved G channel to decomposed_frames/output_0041_G.txt\n",
      "Saved B channel to decomposed_frames/output_0041_B.txt\n",
      "Saved R channel to decomposed_frames/output_0042_R.txt\n",
      "Saved G channel to decomposed_frames/output_0042_G.txt\n",
      "Saved B channel to decomposed_frames/output_0042_B.txt\n",
      "Saved R channel to decomposed_frames/output_0043_R.txt\n",
      "Saved G channel to decomposed_frames/output_0043_G.txt\n",
      "Saved B channel to decomposed_frames/output_0043_B.txt\n",
      "Saved R channel to decomposed_frames/output_0044_R.txt\n",
      "Saved G channel to decomposed_frames/output_0044_G.txt\n",
      "Saved B channel to decomposed_frames/output_0044_B.txt\n",
      "Saved R channel to decomposed_frames/output_0045_R.txt\n",
      "Saved G channel to decomposed_frames/output_0045_G.txt\n",
      "Saved B channel to decomposed_frames/output_0045_B.txt\n",
      "Saved R channel to decomposed_frames/output_0046_R.txt\n",
      "Saved G channel to decomposed_frames/output_0046_G.txt\n",
      "Saved B channel to decomposed_frames/output_0046_B.txt\n",
      "Saved R channel to decomposed_frames/output_0047_R.txt\n",
      "Saved G channel to decomposed_frames/output_0047_G.txt\n",
      "Saved B channel to decomposed_frames/output_0047_B.txt\n"
     ]
    }
   ],
   "source": [
    "import sys\n",
    "sys.path.append(os.path.abspath(\"../\"))\n",
    "from scripts.decompose_image import decompose_image \n",
    "for i in sorted(os.listdir(\"frames\")):\n",
    "    if i.endswith(\".png\"):\n",
    "        r,g,b = decompose_image(os.path.join(\"frames\", i), os.path.join(\"decomposed_frames\", i[:-4]))"
   ]
  },
  {
   "cell_type": "code",
   "execution_count": 2,
   "id": "5bf29474",
   "metadata": {},
   "outputs": [
    {
     "name": "stdout",
     "output_type": "stream",
     "text": [
      "Copied output_0010_G.txt\n",
      "Copied output_0010_R.txt\n",
      "Copied output_0010_B.txt\n"
     ]
    }
   ],
   "source": [
    "import os\n",
    "import shutil\n",
    "import re\n",
    "\n",
    "def copy_trimmed_files(a, b, output_dir):\n",
    "    input_dir = 'decomposed_frames'\n",
    "\n",
    "    # Create the output directory if it doesn't exist\n",
    "    os.makedirs(output_dir, exist_ok=True)\n",
    "\n",
    "    # Pattern to match filenames like output_0001_R.txt\n",
    "    pattern = re.compile(r'output_(\\d{4})_[RGB]\\.txt')\n",
    "\n",
    "    for filename in os.listdir(input_dir):\n",
    "        match = pattern.match(filename)\n",
    "        if match:\n",
    "            frame_num = int(match.group(1))\n",
    "            if a <= frame_num <= b:\n",
    "                src = os.path.join(input_dir, filename)\n",
    "                dst = os.path.join(output_dir, filename)\n",
    "                shutil.copyfile(src, dst)\n",
    "                print(f\"Copied {filename}\")\n",
    "\n",
    "copy_trimmed_files(10,40,'trimmed_decomposed_frames')\n",
    "copy_trimmed_files(10,10,'trimmed_decomposed_frames_2')"
   ]
  },
  {
   "cell_type": "code",
   "execution_count": 4,
   "id": "b2580654",
   "metadata": {},
   "outputs": [
    {
     "name": "stdout",
     "output_type": "stream",
     "text": [
      "Saved image trimmed_frames/output_0012.png\n",
      "Saved image trimmed_frames/output_0010.png\n",
      "Saved image trimmed_frames/output_0030.png\n",
      "Saved image trimmed_frames/output_0014.png\n",
      "Saved image trimmed_frames/output_0036.png\n",
      "Saved image trimmed_frames/output_0034.png\n",
      "Saved image trimmed_frames/output_0029.png\n",
      "Saved image trimmed_frames/output_0016.png\n",
      "Saved image trimmed_frames/output_0032.png\n",
      "Saved image trimmed_frames/output_0017.png\n",
      "Saved image trimmed_frames/output_0037.png\n",
      "Saved image trimmed_frames/output_0035.png\n",
      "Saved image trimmed_frames/output_0013.png\n",
      "Saved image trimmed_frames/output_0011.png\n",
      "Saved image trimmed_frames/output_0033.png\n",
      "Saved image trimmed_frames/output_0031.png\n",
      "Saved image trimmed_frames/output_0028.png\n",
      "Saved image trimmed_frames/output_0015.png\n",
      "Saved image trimmed_frames/output_0022.png\n",
      "Saved image trimmed_frames/output_0026.png\n",
      "Saved image trimmed_frames/output_0024.png\n",
      "Saved image trimmed_frames/output_0019.png\n",
      "Saved image trimmed_frames/output_0039.png\n",
      "Saved image trimmed_frames/output_0020.png\n",
      "Saved image trimmed_frames/output_0027.png\n",
      "Saved image trimmed_frames/output_0038.png\n",
      "Saved image trimmed_frames/output_0025.png\n",
      "Saved image trimmed_frames/output_0018.png\n",
      "Saved image trimmed_frames/output_0040.png\n",
      "Saved image trimmed_frames/output_0021.png\n",
      "Saved image trimmed_frames/output_0023.png\n"
     ]
    }
   ],
   "source": [
    "import os\n",
    "import numpy as np\n",
    "from PIL import Image\n",
    "import re\n",
    "\n",
    "def recompose_images():\n",
    "    input_dir = 'trimmed_decomposed_frames'\n",
    "    output_dir = 'trimmed_frames'\n",
    "    os.makedirs(output_dir, exist_ok=True)\n",
    "\n",
    "    # Pattern to extract NNNN and channel\n",
    "    pattern = re.compile(r'output_(\\d{4})_([RGB])\\.txt')\n",
    "\n",
    "    # Collect files by frame number\n",
    "    frame_dict = {}\n",
    "    for filename in os.listdir(input_dir):\n",
    "        match = pattern.match(filename)\n",
    "        if match:\n",
    "            frame_num, channel = match.groups()\n",
    "            frame_dict.setdefault(frame_num, {})[channel] = filename\n",
    "\n",
    "    # Reconstruct images\n",
    "    for frame_num, channels in frame_dict.items():\n",
    "        if all(c in channels for c in 'RGB'):\n",
    "            r = np.loadtxt(os.path.join(input_dir, channels['R']), dtype=np.uint8)\n",
    "            g = np.loadtxt(os.path.join(input_dir, channels['G']), dtype=np.uint8)\n",
    "            b = np.loadtxt(os.path.join(input_dir, channels['B']), dtype=np.uint8)\n",
    "\n",
    "            # Stack into a 3D array\n",
    "            img_array = np.stack([r, g, b], axis=2)\n",
    "\n",
    "            # Create and save the image\n",
    "            img = Image.fromarray(img_array, 'RGB')\n",
    "            output_path = os.path.join(output_dir, f'output_{frame_num}.png')\n",
    "            img.save(output_path)\n",
    "            print(f\"Saved image {output_path}\")\n",
    "        else:\n",
    "            print(f\"Incomplete channels for frame {frame_num}, skipping.\")\n",
    "\n",
    "# Example usage\n",
    "recompose_images()\n"
   ]
  },
  {
   "cell_type": "code",
   "execution_count": 10,
   "id": "6b8d7c7b",
   "metadata": {},
   "outputs": [
    {
     "name": "stderr",
     "output_type": "stream",
     "text": [
      "ffmpeg version 7.1.1 Copyright (c) 2000-2025 the FFmpeg developers\n",
      "  built with Apple clang version 16.0.0 (clang-1600.0.26.6)\n",
      "  configuration: --prefix=/opt/homebrew/Cellar/ffmpeg/7.1.1_1 --enable-shared --enable-pthreads --enable-version3 --cc=clang --host-cflags= --host-ldflags='-Wl,-ld_classic' --enable-ffplay --enable-gnutls --enable-gpl --enable-libaom --enable-libaribb24 --enable-libbluray --enable-libdav1d --enable-libharfbuzz --enable-libjxl --enable-libmp3lame --enable-libopus --enable-librav1e --enable-librist --enable-librubberband --enable-libsnappy --enable-libsrt --enable-libssh --enable-libsvtav1 --enable-libtesseract --enable-libtheora --enable-libvidstab --enable-libvmaf --enable-libvorbis --enable-libvpx --enable-libwebp --enable-libx264 --enable-libx265 --enable-libxml2 --enable-libxvid --enable-lzma --enable-libfontconfig --enable-libfreetype --enable-frei0r --enable-libass --enable-libopencore-amrnb --enable-libopencore-amrwb --enable-libopenjpeg --enable-libspeex --enable-libsoxr --enable-libzmq --enable-libzimg --disable-libjack --disable-indev=jack --enable-videotoolbox --enable-audiotoolbox --enable-neon\n",
      "  libavutil      59. 39.100 / 59. 39.100\n",
      "  libavcodec     61. 19.101 / 61. 19.101\n",
      "  libavformat    61.  7.100 / 61.  7.100\n",
      "  libavdevice    61.  3.100 / 61.  3.100\n",
      "  libavfilter    10.  4.100 / 10.  4.100\n",
      "  libswscale      8.  3.100 /  8.  3.100\n",
      "  libswresample   5.  3.100 /  5.  3.100\n",
      "  libpostproc    58.  3.100 / 58.  3.100\n",
      "Input #0, image2, from 'temp_numbered_frames/%04d.png':\n",
      "  Duration: 00:00:02.07, start: 0.000000, bitrate: N/A\n",
      "  Stream #0:0: Video: png, rgb24(pc, gbr/unknown/unknown), 320x240, 15 fps, 15 tbr, 15 tbn\n",
      "Stream mapping:\n",
      "  Stream #0:0 -> #0:0 (png (native) -> h264 (libx264))\n",
      "Press [q] to stop, [?] for help\n",
      "[libx264 @ 0x11e107700] using cpu capabilities: ARMv8 NEON\n",
      "[libx264 @ 0x11e107700] profile High, level 1.2, 4:2:0, 8-bit\n",
      "[libx264 @ 0x11e107700] 264 - core 164 r3108 31e19f9 - H.264/MPEG-4 AVC codec - Copyleft 2003-2023 - http://www.videolan.org/x264.html - options: cabac=1 ref=3 deblock=1:0:0 analyse=0x3:0x113 me=hex subme=7 psy=1 psy_rd=1.00:0.00 mixed_ref=1 me_range=16 chroma_me=1 trellis=1 8x8dct=1 cqm=0 deadzone=21,11 fast_pskip=1 chroma_qp_offset=-2 threads=7 lookahead_threads=1 sliced_threads=0 nr=0 decimate=1 interlaced=0 bluray_compat=0 constrained_intra=0 bframes=3 b_pyramid=2 b_adapt=1 b_bias=0 direct=1 weightb=1 open_gop=0 weightp=2 keyint=250 keyint_min=15 scenecut=40 intra_refresh=0 rc_lookahead=40 rc=crf mbtree=1 crf=23.0 qcomp=0.60 qpmin=0 qpmax=69 qpstep=4 ip_ratio=1.40 aq=1:1.00\n",
      "Output #0, mp4, to 'reconstructed_video.mp4':\n",
      "  Metadata:\n",
      "    encoder         : Lavf61.7.100\n",
      "  Stream #0:0: Video: h264 (avc1 / 0x31637661), yuv420p(tv, progressive), 320x240, q=2-31, 15 fps, 15360 tbn\n",
      "      Metadata:\n",
      "        encoder         : Lavc61.19.101 libx264\n",
      "      Side data:\n",
      "        cpb: bitrate max/min/avg: 0/0/0 buffer size: 0 vbv_delay: N/A\n",
      "[out#0/mp4 @ 0x11e104310] video:45KiB audio:0KiB subtitle:0KiB other streams:0KiB global headers:0KiB muxing overhead: 2.696363%\n",
      "frame=   31 fps=0.0 q=-1.0 Lsize=      46KiB time=00:00:01.93 bitrate= 193.8kbits/s speed=58.7x    \n",
      "[libx264 @ 0x11e107700] frame I:1     Avg QP:20.43  size: 13025\n",
      "[libx264 @ 0x11e107700] frame P:8     Avg QP:23.33  size:  2524\n",
      "[libx264 @ 0x11e107700] frame B:22    Avg QP:25.34  size:   532\n",
      "[libx264 @ 0x11e107700] consecutive B-frames:  3.2%  6.5%  0.0% 90.3%\n",
      "[libx264 @ 0x11e107700] mb I  I16..4: 15.7% 44.0% 40.3%\n",
      "[libx264 @ 0x11e107700] mb P  I16..4:  0.5%  2.9%  3.5%  P16..4: 47.2% 11.9%  7.9%  0.0%  0.0%    skip:26.2%\n",
      "[libx264 @ 0x11e107700] mb B  I16..4:  0.0%  0.1%  0.1%  B16..8: 38.5%  3.6%  1.2%  direct: 1.9%  skip:54.5%  L0:37.7% L1:43.2% BI:19.1%\n",
      "[libx264 @ 0x11e107700] 8x8 transform intra:43.4% inter:54.5%\n",
      "[libx264 @ 0x11e107700] coded y,uvDC,uvAC intra: 83.8% 85.0% 67.4% inter: 13.6% 12.8% 1.2%\n",
      "[libx264 @ 0x11e107700] i16 v,h,dc,p: 25% 37% 33%  5%\n",
      "[libx264 @ 0x11e107700] i8 v,h,dc,ddl,ddr,vr,hd,vl,hu: 10% 21%  9%  4% 12% 11% 14%  8% 12%\n",
      "[libx264 @ 0x11e107700] i4 v,h,dc,ddl,ddr,vr,hd,vl,hu: 11% 23% 16%  6% 11%  9%  9%  7%  8%\n",
      "[libx264 @ 0x11e107700] i8c dc,h,v,p: 43% 31% 14% 12%\n",
      "[libx264 @ 0x11e107700] Weighted P-Frames: Y:0.0% UV:0.0%\n",
      "[libx264 @ 0x11e107700] ref P L0: 73.8% 17.8%  6.6%  1.8%\n",
      "[libx264 @ 0x11e107700] ref B L0: 94.3%  5.0%  0.7%\n",
      "[libx264 @ 0x11e107700] ref B L1: 98.1%  1.9%\n",
      "[libx264 @ 0x11e107700] kb/s:173.91\n"
     ]
    },
    {
     "data": {
      "text/plain": [
       "0"
      ]
     },
     "execution_count": 10,
     "metadata": {},
     "output_type": "execute_result"
    }
   ],
   "source": [
    "import os\n",
    "import shutil\n",
    "\n",
    "input_dir = \"trimmed_frames\"\n",
    "temp_dir = \"temp_numbered_frames\"\n",
    "output_video = \"reconstructed_video.mp4\"\n",
    "\n",
    "# Create temp dir\n",
    "os.makedirs(temp_dir, exist_ok=True)\n",
    "\n",
    "# Collect and sort PNGs by frame number\n",
    "png_files = sorted(\n",
    "    [f for f in os.listdir(input_dir) if f.endswith(\".png\")],\n",
    "    key=lambda x: int(x.split(\"_\")[1].split(\".\")[0])\n",
    ")\n",
    "\n",
    "# Copy them as 0001.png, 0002.png, etc.\n",
    "for i, filename in enumerate(png_files):\n",
    "    src = os.path.join(input_dir, filename)\n",
    "    dst = os.path.join(temp_dir, f\"{i+1:04d}.png\")\n",
    "    shutil.copyfile(src, dst)\n",
    "\n",
    "# Run ffmpeg with image sequence\n",
    "os.system(f\"ffmpeg -y -framerate 15 -i {temp_dir}/%04d.png -c:v libx264 -pix_fmt yuv420p {output_video}\")\n",
    "\n",
    "# Clean up (optional)\n",
    "# shutil.rmtree(temp_dir)"
   ]
  }
 ],
 "metadata": {
  "kernelspec": {
   "display_name": "Python 3 (ipykernel)",
   "language": "python",
   "name": "python3"
  },
  "language_info": {
   "codemirror_mode": {
    "name": "ipython",
    "version": 3
   },
   "file_extension": ".py",
   "mimetype": "text/x-python",
   "name": "python",
   "nbconvert_exporter": "python",
   "pygments_lexer": "ipython3",
   "version": "3.9.22"
  }
 },
 "nbformat": 4,
 "nbformat_minor": 5
}
